<svg width="18" height="23" viewBox="0 0 18 23" fill="none" xmlns="http://www.w3.org/2000/svg">
<path d="M14.976 12.3008C14.9868 11.4662 15.2104 10.6478 15.6258 9.92182C16.0413 9.19587 16.6352 8.58593 17.3522 8.14876C16.8967 7.5036 16.2958 6.97266 15.5972 6.5981C14.8986 6.22355 14.1215 6.01571 13.3277 5.99108C11.6344 5.81482 9.99289 6.99591 9.13003 6.99591C8.25047 6.99591 6.92196 6.00858 5.49137 6.03777C4.56603 6.06742 3.66421 6.33427 2.87378 6.81233C2.08335 7.29039 1.43127 7.96335 0.981076 8.76564C-0.969086 12.1141 0.485558 17.0351 2.35365 19.7417C3.2883 21.0671 4.38063 22.5475 5.80992 22.495C7.20858 22.4375 7.73095 21.6105 9.41924 21.6105C11.0919 21.6105 11.5819 22.495 13.0402 22.4616C14.5411 22.4375 15.4867 21.1304 16.3885 19.7925C17.06 18.8481 17.5768 17.8044 17.9196 16.7C17.0477 16.3343 16.3036 15.7221 15.7801 14.9398C15.2567 14.1575 14.977 13.2397 14.976 12.3008Z" fill="white"/>
<path d="M12.2216 4.21108C13.0399 3.23687 13.443 1.98469 13.3454 0.720459C12.0952 0.85068 10.9404 1.44324 10.111 2.38007C9.70551 2.83773 9.39494 3.37017 9.19705 3.94694C8.99917 4.52371 8.91785 5.1335 8.95774 5.74146C9.58307 5.74784 10.2017 5.61343 10.767 5.34834C11.3324 5.08326 11.8297 4.69441 12.2216 4.21108Z" fill="white"/>
</svg>
